<svg xmlns="http://www.w3.org/2000/svg" width="1920" height="864.443" viewBox="0 0 1920 864.443">
  <defs>
    <style>
      .cls-1 {
        fill: #f3f3f3;
      }
    </style>
  </defs>
  <g id="Group_13" data-name="Group 13" transform="translate(0 -2368)">
    <g id="Group_12" data-name="Group 12" transform="translate(0 89)">
      <g id="Wave" transform="translate(0 2277)">
        <path id="Path_1" data-name="Path 1" class="cls-1" d="M0,208c76.8-2,230.4-22.4,384-10s230.4,98,384,72S998.4,71,1152,68s230.4,200.2,384,187S1843.2,52.6,1920,2V400H0Z"/>
      </g>
      <path id="Path_2" data-name="Path 2" class="cls-1" d="M0,0H1920V232.787H0Z" transform="translate(0 2676)"/>
    </g>
    <g id="WaveBottom" transform="translate(1920 3589) rotate(180)">
      <path id="Path_3" data-name="Path 3" class="cls-1" d="M0,165.135c72.324,0,55.621-4.542,209.221,11.858s308.537,63.437,462.137,61.037S998.4,182.6,1152,185s239.594,125.53,394.8,127.274S1843.2,254.6,1920,210V400H0Z" transform="translate(0 192)"/>
    </g>
  </g>
</svg>
